<?xml version="1.0" encoding="UTF-8"?>
<svg id="Capa_1" xmlns="http://www.w3.org/2000/svg" viewBox="0 0 204.81 62.83">
  <defs>
    <style>
      .cls-1 {
        fill: #2c4c71;
      }
    </style>
  </defs>
  <path class="cls-1" d="M182.65,9.34h19.63v7.81h-11.78c-.16.53-.18,7.31-.03,8.01h10.31v7.87c-3.43.02-6.86,0-10.27.01-.16.49-.19,7.24-.03,7.99h12.39c.13.53.16,7.02.05,7.76-.48.12-19.65.14-20.28.02-.15-.57-.14-38.91.02-39.47Z"/>
  <path class="cls-1" d="M137.6,9.33h9.05c2.79,7.01,5.77,14,8.15,21.24.67-1.38,1.12-2.83,1.63-4.24.52-1.42,1.01-2.84,1.54-4.25.54-1.43,1.12-2.84,1.69-4.26.56-1.4,1.11-2.8,1.66-4.21.56-1.42,1.12-2.84,1.7-4.28,2.99,0,5.96,0,8.93,0,.01.02.02.03.03.05,0,.02.02.04.01.06-.03.1-.05.2-.09.3-5.38,13.27-10.77,26.54-16.15,39.81-.02.05-.07.1-.12.17h-1.65c-5.44-13.41-10.89-26.86-16.37-40.38Z"/>
  <path class="cls-1" d="M117.63,48.85h-7.78v-.77c0-5.43,0-10.85,0-16.28,0-.48-.11-.88-.37-1.29-4.31-6.79-8.61-13.59-12.91-20.39-.14-.23-.28-.46-.43-.69.49-.14,8.02-.2,9.48-.07,2.66,4.48,5.34,9,8.09,13.62,1.01-1.55,1.85-3.07,2.75-4.57.91-1.51,1.8-3.03,2.69-4.54.9-1.51,1.8-3.02,2.7-4.53h9.57c-.13.23-.23.42-.34.61-2.74,4.31-5.48,8.63-8.23,12.94-1.63,2.56-3.25,5.13-4.9,7.69-.24.37-.34.74-.34,1.17.01,5.43,0,10.85,0,16.28v.84Z"/>
  <path class="cls-1" d="M22.39,40.68c-.31-.03-.47-.06-.64-.06-3.1-.09-5.91-1.1-8.5-2.75-1.4-.9-2.7-1.92-3.74-3.24-1.21-1.53-1.89-3.26-1.82-5.23.07-1.97.76-3.72,2.04-5.23,1.89-2.25,4.29-3.62,7.19-4.18,3.07-.58,6.05-.19,8.99.7,2.7.82,5.23,2.03,7.67,3.44.22.13.44.25.66.37.03.02.08,0,.18.02.17-.22.37-.47.55-.71,3.16-4.19,6.5-8.22,10.22-11.93,2.77-2.76,5.71-5.31,9.01-7.43,2.51-1.62,5.16-2.95,8.07-3.73,1.75-.47,3.52-.78,5.34-.69,2.53.13,4.81.93,6.64,2.73,1.41,1.39,1.89,3.13,1.65,5.07-.32,2.69-1.57,4.97-3.19,7.07-2.1,2.73-4.64,5.01-7.37,7.08-4.03,3.06-8.36,5.66-12.77,8.14-1.59.89-3.2,1.75-4.8,2.62-.18.1-.35.2-.59.34.19.13.31.23.45.31,6.39,3.85,12.78,7.7,19.17,11.55,1.68,1.01,3.49,1.73,5.29,2.47.14.06.27.1.41.16.59.23.59.24.39.89-1.04.22-2.06.15-3.09-.13-2.03-.56-3.95-1.38-5.85-2.26-4.78-2.21-9.38-4.76-13.95-7.36-2.15-1.22-4.28-2.48-6.41-3.74-.36-.21-.64-.24-1.03-.04-2.24,1.14-4.62,1.97-7,2.79-3.25,1.13-6.56,2.04-9.95,2.6-.33.05-.66.13-1,.13-.38,0-.6.19-.82.48-3.63,4.78-7.53,9.33-11.61,13.73-2,2.15-4.05,4.25-6.38,6.05-.74.57-1.54,1.09-2.36,1.56-.46.27-1,.42-1.53.55-.54.14-.9-.11-1.03-.65-.16-.69-.08-1.33.51-1.83.57-.48,1.16-.87,1.93-.49.5.24.88.13,1.31-.21,4.08-3.22,7.79-6.83,11.17-10.77,2.1-2.45,4.08-5.01,6.1-7.52.14-.18.27-.37.47-.65ZM35.48,25.31c.46.34.84.66,1.26.93,3.07,1.96,6.15,3.91,9.22,5.88.33.21.56.15.86-.01,1.92-1.07,3.87-2.1,5.77-3.19,4.79-2.75,9.35-5.84,13.47-9.53,1.96-1.75,3.77-3.64,5.19-5.87.91-1.43,1.58-2.95,1.8-4.64.17-1.27-.07-2.42-.93-3.4-.53-.61-1.18-1.07-1.88-1.46-2.64-1.46-5.46-1.63-8.36-1.11-2.71.49-5.2,1.58-7.53,3.02-2.95,1.81-5.51,4.09-7.88,6.6-3.74,3.97-7.23,8.15-10.69,12.36-.09.11-.17.23-.3.43ZM32.27,27.31c-.08-.1-.11-.16-.15-.2-.17-.15-.35-.3-.53-.44-1.99-1.52-4.16-2.73-6.46-3.73-2.44-1.05-4.96-1.63-7.64-1.37-2.4.24-4.57,1.03-6.4,2.62-2.55,2.2-2.92,5.45-.93,8.15.43.58.96,1.11,1.5,1.6,1.12,1,2.42,1.71,3.76,2.37,2.58,1.26,5.3,1.91,8.16,2.05.53.03.83-.16,1.13-.58,2.38-3.32,4.78-6.62,7.18-9.93.12-.17.24-.34.37-.54ZM42.18,33.87c-2.92-1.97-5.72-3.86-8.54-5.77-2.52,3.32-4.99,6.57-7.46,9.83-.06.08-.11.18-.16.27,0,.01,0,.04,0,.06,0,.02.02.03.06.1,5.6-.42,10.81-2.32,16.1-4.48Z"/>
  <path class="cls-1" d="M64.41,37.99c-.02-1.01.29-1.94.76-2.82,1.11-2.1,2.65-3.81,4.6-5.15.66-.45,1.38-.79,2.18-.92.8-.13,1.38.24,1.86.82.45.54.35,1.15.1,1.72-.14.32-.37.62-.62.86-.46.46-.94.9-1.46,1.29-1.52,1.15-3.03,2.32-4.76,3.16-.28.13-.35.33-.31.61.11.85.55,1.49,1.27,1.93.89.54,1.85.63,2.85.45,1.27-.22,2.45-.72,3.6-1.28,2.37-1.15,4.53-2.62,6.63-4.19,1.46-1.09,2.93-2.18,4.39-3.27.1-.08.2-.16.3-.23.2-.13.42-.27.62-.05.19.21.06.44-.06.64-.08.12-.19.22-.31.31-2.48,2.1-4.98,4.18-7.66,6.02-1.99,1.37-4.1,2.52-6.42,3.26-1.08.35-2.19.58-3.32.64-.58.03-1.18-.01-1.75-.14-1.45-.32-2.3-1.4-2.47-3.04-.02-.21-.02-.42-.03-.63ZM66.91,35.4c.33-.09.56-.11.75-.2,1.29-.63,2.46-1.43,3.42-2.5.22-.25.41-.53.55-.83.32-.7,0-1.14-.76-.98-.43.09-.87.31-1.23.58-1.09.82-1.89,1.88-2.47,3.11-.1.22-.15.46-.26.82Z"/>
  <path class="cls-1" d="M87.84,40.9c-.42-.08-.78-.1-1.11-.21-.85-.28-1.19-.86-1.17-1.85.02-.88.42-1.43,1.24-1.68,1-.3,1.94-.2,2.81.43.53.38.84.89.78,1.55-.07.71-.45,1.22-1.13,1.44-.47.15-.97.23-1.41.33Z"/>
  <path class="cls-1" d="M90.47,30.49c.87,0,1.56.36,2.09,1.02.71.89.42,2.13-.61,2.58-.86.37-1.75.4-2.64.09-.8-.28-1.12-.79-1.12-1.69,0-.92.35-1.51,1.12-1.77.37-.12.77-.15,1.16-.22Z"/>
</svg>